<svg width="283" height="80" viewBox="0 0 283 80" fill="none" xmlns="http://www.w3.org/2000/svg">
<g clip-path="url(#clip0_228_30)">
<path d="M111.689 17.6056C115.52 17.6056 118.919 18.535 121.887 20.3938C124.855 22.2181 127.185 24.5416 128.876 27.3643C130.567 30.2213 131.481 33.3882 131.619 36.8648C131.723 40.3415 130.843 43.7321 128.979 47.0366C127.357 49.7904 125.269 51.9935 122.716 53.6457C120.162 55.2636 117.435 56.279 114.536 56.6921C111.637 57.1052 108.721 56.8642 105.788 55.9692C102.889 55.0743 100.266 53.4736 97.9192 51.1673C95.3308 48.5168 93.6052 45.4532 92.7425 41.9766C91.8452 38.4999 91.9142 35.0405 92.9495 31.5982C93.3637 30.1869 94.0711 29.0166 95.072 28.0872C96.0728 27.1922 97.1944 26.5209 98.4368 26.0734C99.7137 25.6604 101.025 25.4711 102.371 25.5055C103.717 25.5399 104.977 25.8153 106.15 26.3316C107.289 26.8479 108.255 27.5708 109.049 28.5002C109.843 29.4296 110.326 30.5828 110.499 31.9597C109.774 31.4089 108.894 31.1163 107.858 31.0819C106.858 31.0819 105.891 31.3056 104.959 31.7531C103.993 32.2006 103.182 32.9063 102.526 33.8701C101.871 34.7995 101.543 35.9699 101.543 37.3812C101.543 39.7907 102.061 41.7872 103.096 43.3707C104.097 44.9541 105.356 46.1417 106.875 46.9334C108.393 47.7251 110.05 48.1209 111.844 48.1209C113.605 48.1209 115.244 47.7079 116.762 46.8817C118.281 46.09 119.54 44.8852 120.541 43.2674C121.577 41.6495 122.094 39.6358 122.094 37.2263C122.094 35.333 121.749 33.6636 121.059 32.2178C120.369 30.7721 119.471 29.5845 118.367 28.6551C117.228 27.7257 115.9 27.0717 114.381 26.693C112.897 26.3488 111.31 26.3316 109.618 26.6414C108.894 25.7809 108.014 25.1096 106.978 24.6277C105.943 24.1114 104.821 23.7671 103.614 23.595C102.406 23.4229 101.198 23.4401 99.9898 23.6467C98.7819 23.8876 97.6431 24.3179 96.5732 24.9375C98.5058 22.6312 100.749 20.8413 103.303 19.5676C105.857 18.2596 108.652 17.6056 111.689 17.6056ZM146.787 18.5866V22.614C148.582 20.824 150.549 19.516 152.689 18.6899C154.828 17.8981 156.985 17.5367 159.159 17.6056C161.334 17.7088 163.439 18.2252 165.475 19.1546C167.511 20.0495 169.306 21.3404 170.859 23.0271C172.412 24.7138 173.654 26.7619 174.586 29.1715C175.518 31.5466 175.984 34.2315 175.984 37.2263C175.984 40.1178 175.483 42.7683 174.482 45.1778C173.447 47.5874 172.084 49.6527 170.393 51.3739C168.702 53.1294 166.769 54.4719 164.595 55.4013C162.386 56.3307 160.126 56.7437 157.814 56.6405C155.398 56.5716 153.482 56.0553 152.067 55.0915C150.687 54.1621 149.669 53.0778 149.013 51.8386C148.392 50.6338 148.081 49.3946 148.081 48.1209C148.081 46.8129 148.306 45.7802 148.754 45.0229C149.168 45.6081 149.686 46.1072 150.307 46.5203C150.894 46.9334 151.55 47.2432 152.274 47.4497C152.965 47.6562 153.689 47.8111 154.449 47.9144C155.173 48.0177 155.881 48.0693 156.571 48.0693C158.78 48.0693 160.643 47.5186 162.162 46.417C163.646 45.35 164.768 44.0075 165.527 42.3896C166.286 40.7718 166.666 39.0162 166.666 37.123C166.666 35.1954 166.303 33.4398 165.579 31.8564C164.854 30.2385 163.732 28.8789 162.214 27.7773C160.73 26.7103 158.849 26.1767 156.571 26.1767C154.673 26.1767 153.103 26.607 151.86 27.4676C150.618 28.3281 149.617 29.4468 148.858 30.8237C148.099 32.2006 147.564 33.7324 147.253 35.4191C146.942 37.1058 146.787 38.7925 146.787 40.4792V70.0135H137.417V26.0734C137.417 24.8342 137.676 23.7327 138.194 22.7689C138.712 21.8051 139.402 20.9962 140.265 20.3421C141.127 19.6881 142.111 19.2234 143.215 18.948C144.354 18.6382 145.545 18.5177 146.787 18.5866ZM181.782 55.9176V18.3284H189.909V23.1303C190.737 21.4436 191.79 20.1012 193.067 19.1029C194.344 18.1047 195.759 17.5711 197.312 17.5023C199.348 17.3302 200.987 17.6916 202.23 18.5866C203.472 19.4816 204.352 20.5659 204.87 21.8395C205.387 23.1131 205.525 24.4212 205.284 25.7636C205.042 27.0717 204.387 28.1216 203.317 28.9133C202.868 27.7085 202.04 26.9168 200.832 26.5381C199.589 26.1939 198.295 26.2456 196.949 26.693C195.603 27.1405 194.378 28.0011 193.274 29.2747C192.204 30.5139 191.566 32.149 191.359 34.1799C191.255 35.3503 191.203 36.5034 191.203 37.6393C191.203 38.7409 191.203 39.7735 191.203 40.7374V55.9176H181.782ZM238.259 41.4602C235.637 42.1487 233.255 42.3896 231.116 42.1831C228.976 42.011 227.216 41.4947 225.835 40.6341C224.455 39.808 223.523 38.6892 223.04 37.2779C222.591 35.8322 222.729 34.2143 223.454 32.4244C224.973 33.698 226.715 34.3864 228.683 34.4897C230.65 34.6274 232.565 34.593 234.429 34.3864C235.947 34.2487 237.103 33.9217 237.897 33.4054C238.725 32.8546 239.226 32.235 239.398 31.5466C239.605 30.8581 239.536 30.1181 239.191 29.3264C238.846 28.5691 238.294 27.8806 237.535 27.261C236.81 26.607 235.895 26.0907 234.791 25.712C233.721 25.3334 232.531 25.1613 231.219 25.1957C229.804 25.2989 228.475 25.6432 227.233 26.2283C225.991 26.8135 224.886 27.6052 223.92 28.6035C222.954 29.6362 222.177 30.8237 221.59 32.1662C221.004 33.5087 220.693 35.006 220.659 36.6583C220.59 38.0008 220.745 39.326 221.125 40.6341C221.47 41.9077 222.005 43.0953 222.729 44.1968C223.454 45.2639 224.334 46.1761 225.369 46.9334C226.37 47.6907 227.526 48.1554 228.838 48.3275C230.667 48.6717 232.548 48.5512 234.48 47.966C236.413 47.4153 238.121 46.3654 239.605 44.8164L247.215 48.4824C245.248 51.4427 242.918 53.5597 240.227 54.8333C237.5 56.1069 234.394 56.7437 230.908 56.7437C227.699 56.7437 224.869 56.1758 222.419 55.0398C219.968 53.9039 217.932 52.3893 216.31 50.4961C214.688 48.6373 213.48 46.5203 212.687 44.1452C211.893 41.7356 211.53 39.2916 211.599 36.8132C211.634 34.3348 212.117 31.908 213.049 29.5329C213.946 27.1233 215.275 25.0064 217.035 23.182C218.968 21.1166 221.211 19.6537 223.765 18.7931C226.353 17.9326 229.01 17.5023 231.737 17.5023C234.739 17.5023 237.328 18.0014 239.502 18.9997C241.676 19.9979 243.436 21.2887 244.782 22.8722C246.128 24.4212 247.025 26.1595 247.474 28.0872C247.888 29.9804 247.836 31.822 247.319 33.6119C246.835 35.4019 245.835 37.0025 244.316 38.4139C242.832 39.8252 240.813 40.8406 238.259 41.4602ZM272.581 29.9976C272.201 29.0682 271.684 28.3281 271.028 27.7773C270.338 27.2266 269.596 26.8135 268.802 26.5381C268.008 26.2283 267.232 26.0734 266.472 26.0734C265.713 26.039 265.092 26.1079 264.609 26.28C263.746 26.5898 263.177 27.0889 262.9 27.7773C262.659 28.4658 262.797 29.137 263.315 29.7911C263.763 30.273 264.453 30.7377 265.385 31.1852C266.317 31.6326 267.37 32.1318 268.543 32.6825C269.716 33.2333 270.907 33.8701 272.115 34.593C273.357 35.2814 274.479 36.1076 275.48 37.0714C276.515 38.0352 277.361 39.1711 278.016 40.4792C278.672 41.7872 279 43.319 279 45.0746C279 47.1743 278.534 48.9987 277.602 50.5477C276.67 52.1311 275.445 53.4048 273.927 54.3686C272.408 55.3324 270.7 55.9865 268.802 56.3307C266.904 56.7093 264.971 56.7437 263.004 56.4339C261.037 56.1586 259.139 55.5045 257.31 54.4719C255.481 53.4392 253.893 52.0279 252.547 50.2379L258.345 43.9903C259.553 45.436 260.813 46.4859 262.124 47.1399C263.47 47.7595 264.695 48.1037 265.799 48.1726C266.938 48.2414 267.905 48.0693 268.698 47.6562C269.458 47.2432 269.924 46.6924 270.096 46.004C270.269 45.3155 270.062 44.541 269.475 43.6805C268.888 42.8543 267.784 42.0282 266.162 41.2021C264.609 40.4103 263.09 39.6186 261.606 38.8269C260.157 38.0008 258.863 37.0714 257.724 36.0387C256.585 35.0405 255.653 33.9217 254.928 32.6825C254.238 31.4089 253.893 29.9287 253.893 28.2421C253.893 26.5209 254.255 24.9891 254.98 23.6467C255.705 22.2698 256.671 21.1338 257.879 20.2389C259.087 19.3095 260.467 18.6382 262.02 18.2252C263.573 17.7777 265.161 17.5711 266.783 17.6056C269.613 17.7777 271.753 18.3973 273.202 19.4644C274.686 20.5659 275.618 21.8051 275.998 23.182C276.343 24.5244 276.222 25.8497 275.635 27.1577C275.014 28.4658 273.996 29.4124 272.581 29.9976Z" fill="white"/>
<path d="M13.0174 13.841C11.8088 15.0496 11.1482 16.7098 11.2054 18.3963C11.2122 18.5793 11.2274 18.7619 11.251 18.9434C2.21163 31.3278 2.18963 48.2288 11.1962 60.5901C11.1647 60.8408 11.1169 61.1237 11.1165 61.3801C11.1139 63.0122 11.7248 64.5832 12.8909 65.7493L13.8314 66.6897C14.9974 67.8557 16.568 68.4666 18.2004 68.4643C18.4568 68.464 18.7253 68.431 18.9761 68.3997C31.337 77.4062 48.2453 77.3762 60.6294 68.3371C60.8106 68.3601 60.9966 68.3725 61.1805 68.3789C62.8672 68.4359 64.5309 67.7717 65.7397 66.563L66.6824 65.6202C67.891 64.4116 68.5516 62.7515 68.4944 61.0649C68.4876 60.8819 68.4724 60.6994 68.4488 60.5178C77.488 48.1336 77.5105 31.2327 68.504 18.8718C68.5355 18.6212 68.5237 18.3972 68.524 18.1407C68.5265 16.5085 67.8557 14.9973 66.6897 13.8314L65.7493 12.8909C64.5835 11.7248 63.0725 11.0542 61.44 11.0567C61.1837 11.0572 60.945 11.06 60.6946 11.0917C48.3331 2.08498 31.4396 2.09948 19.0554 11.1391C18.875 11.1143 18.6936 11.0979 18.5117 11.09C16.8249 11.033 15.1687 11.6896 13.9603 12.8981L13.0174 13.841ZM15.6891 16.5127L16.6641 15.5377C17.6463 14.5555 19.1773 14.624 20.0859 15.67L23.603 19.7361C24.5114 20.782 24.4673 22.4248 23.5098 23.3823C22.5521 24.34 20.9113 24.3824 19.8652 23.4739L15.8063 19.9496C14.7604 19.0412 14.7069 17.4949 15.6891 16.5127V16.5127ZM29.1632 29.0436C35.0712 23.1355 44.6722 23.1233 50.5648 29.0159C56.4574 34.9085 56.4452 44.5094 50.5371 50.4175C44.6293 56.3253 35.0282 56.3377 29.1356 50.4451C23.243 44.5525 23.2554 34.9514 29.1632 29.0436ZM15.5951 59.7232C15.6364 59.682 15.6941 59.6271 15.7387 59.5882L19.8135 56.0449C20.8621 55.1338 22.5082 55.1624 23.4633 56.1174C24.4183 57.0725 24.4545 58.7113 23.5434 59.7599L20.0075 63.8266C19.9685 63.8713 19.8985 63.9445 19.8573 63.9857C18.9351 64.9079 17.4471 64.9489 16.5095 64.0113L15.5691 63.0708C14.6313 62.133 14.673 60.6454 15.595 59.7234L15.5951 59.7232ZM59.7827 15.5357C60.7049 14.6135 62.1332 14.6315 63.0708 15.5691L64.0113 16.5095C64.949 17.4473 64.9675 18.8755 64.0454 19.7976C64.0085 19.8342 63.9703 19.8694 63.9307 19.903L59.8717 23.4313C58.8234 24.3424 57.1878 24.303 56.2328 23.3479C55.2777 22.3928 55.2438 20.7517 56.1549 19.7031L59.6914 15.6358C59.7305 15.591 59.7414 15.5769 59.7827 15.5357V15.5357ZM56.1941 56.0752C57.1516 55.1176 58.7905 55.0772 59.8367 55.9856L63.8944 59.511C64.9401 60.4196 64.9927 61.9669 64.0105 62.949L63.068 63.8916C62.0858 64.8737 60.5387 64.8213 59.6302 63.7753L56.1047 59.7176C55.1963 58.6717 55.2366 57.0327 56.1941 56.0752V56.0752Z" fill="url(#paint0_linear_228_30)"/>
</g>
<defs>
<linearGradient id="paint0_linear_228_30" x1="37.5" y1="38.5" x2="94" y2="92" gradientUnits="userSpaceOnUse">
<stop stop-color="white"/>
<stop offset="1" stop-color="#009688"/>
</linearGradient>
<clipPath id="clip0_228_30">
<rect width="283" height="79.12" fill="white"/>
</clipPath>
</defs>
</svg>
