<svg data-v-423bf9ae="" xmlns="http://www.w3.org/2000/svg" viewBox="0 0 336 90" class="iconLeft"><!----><!----><!----><g data-v-423bf9ae="" id="b9e0806f-f3cd-4d78-bdac-aa97b6d18d6d" fill="white" transform="matrix(5.602240876404433,0,0,5.602240876404433,89.3226653743398,14.27170811673454)"><path d="M11.30 3.86L11.30 3.86C10.58 1.64 8.46 0.13 6.12 0.13C2.95 0.13 0.77 2.39 0.77 5.47C0.77 8.57 2.95 10.84 6.12 10.84C8.46 10.84 10.58 9.34 11.30 7.08C11.33 7 11.27 6.90 11.19 6.87C11.09 6.85 11.00 6.89 10.98 6.99C10.30 9.10 8.33 10.50 6.12 10.50C3.15 10.50 1.09 8.39 1.09 5.47C1.09 2.56 3.15 0.46 6.12 0.46C8.33 0.46 10.30 1.86 10.98 3.96C11.00 4.06 11.09 4.10 11.19 4.07C11.27 4.06 11.33 3.95 11.30 3.86ZM3.32 7.11L3.32 7.11C3.89 8.12 4.96 8.76 6.12 8.76C7.92 8.76 9.35 7.27 9.35 5.47C9.35 3.70 7.92 2.20 6.12 2.20C4.96 2.20 3.89 2.83 3.32 3.84C3.28 3.92 3.30 4.02 3.37 4.07C3.46 4.12 3.57 4.09 3.61 4.00C4.12 3.09 5.07 2.52 6.12 2.52C7.74 2.52 9.02 3.86 9.02 5.47C9.02 7.08 7.74 8.43 6.12 8.43C5.07 8.43 4.12 7.85 3.61 6.94C3.57 6.87 3.46 6.85 3.37 6.89C3.30 6.93 3.28 7.04 3.32 7.11ZM17.11 4.65L17.11 4.65C17.67 4.65 18.02 4.35 18.19 3.96C18.31 3.67 18.31 3.32 18.19 3.02C18.02 2.63 17.67 2.34 17.11 2.34L15.34 2.34C15.25 2.34 15.18 2.41 15.18 2.49C15.18 2.59 15.25 2.66 15.34 2.66L17.11 2.66C17.51 2.66 17.78 2.88 17.89 3.15C17.98 3.37 17.98 3.63 17.89 3.84C17.78 4.13 17.50 4.34 17.11 4.34L16.53 4.34C16.45 4.34 16.38 4.41 16.38 4.49C16.38 4.58 16.45 4.65 16.53 4.65ZM13.51 10.50L13.51 10.50L13.51 0.66L17.28 0.66C18.59 0.66 19.43 1.39 19.81 2.34C20.09 3.07 20.09 3.92 19.81 4.65C19.43 5.60 18.59 6.33 17.28 6.33L15.34 6.33C15.25 6.33 15.18 6.40 15.18 6.48L15.18 10.50C15.18 10.58 15.25 10.65 15.34 10.65C15.43 10.65 15.50 10.58 15.50 10.50L15.50 6.66L17.28 6.66C18.75 6.66 19.70 5.82 20.12 4.79C20.43 3.96 20.43 3.02 20.12 2.21C19.70 1.16 18.75 0.34 17.28 0.34L13.34 0.34C13.26 0.34 13.19 0.42 13.19 0.50L13.19 10.50C13.19 10.58 13.26 10.65 13.34 10.65C13.43 10.65 13.51 10.58 13.51 10.50ZM25.86 4.65L25.86 4.65C26.52 4.65 27.05 4.16 27.05 3.50C27.05 2.83 26.52 2.34 25.86 2.34L24.09 2.34C23.88 2.34 23.88 2.66 24.09 2.66L25.86 2.66C26.33 2.66 26.73 3.01 26.73 3.50C26.73 3.98 26.33 4.34 25.86 4.34L25.30 4.34C25.20 4.34 25.13 4.41 25.13 4.49C25.13 4.58 25.20 4.65 25.30 4.65ZM26.82 10.40L26.82 10.40L24.22 6.93C24.16 6.86 24.07 6.85 24.00 6.89C23.95 6.93 23.93 6.99 23.94 7.03L23.94 10.50C23.94 10.58 24.01 10.67 24.09 10.67C24.18 10.67 24.26 10.58 24.26 10.50L24.26 7.50L26.56 10.58C26.61 10.67 26.73 10.68 26.80 10.63C26.87 10.57 26.88 10.47 26.82 10.40ZM22.26 10.50L22.26 10.50L22.26 0.66L26.03 0.66C27.59 0.66 28.83 1.95 28.83 3.50C28.83 5.04 27.59 6.33 26.03 6.33C25.94 6.33 25.87 6.40 25.87 6.50C25.87 6.54 25.89 6.58 25.91 6.61L28.99 10.58C29.06 10.67 29.16 10.68 29.23 10.61C29.30 10.57 29.32 10.47 29.26 10.40L26.36 6.65C27.96 6.48 29.16 5.10 29.16 3.50C29.16 1.76 27.78 0.32 26.03 0.32L22.09 0.32C22.01 0.32 21.94 0.41 21.94 0.49L21.94 10.50C21.94 10.58 22.01 10.67 22.09 10.67C22.19 10.67 22.26 10.58 22.26 10.50ZM35.04 6.33L35.04 6.33L32.80 6.33C32.70 6.33 32.63 6.40 32.63 6.50L32.63 8.50C32.63 8.58 32.70 8.65 32.80 8.65L35.98 8.65C36.06 8.65 36.13 8.58 36.13 8.50C36.13 8.40 36.06 8.33 35.98 8.33L32.96 8.33L32.96 6.65L35.04 6.65C35.14 6.65 35.21 6.58 35.21 6.50C35.21 6.40 35.14 6.33 35.04 6.33ZM35.98 2.34L35.98 2.34L32.80 2.34C32.70 2.34 32.63 2.41 32.63 2.49L32.63 4.49C32.63 4.58 32.70 4.66 32.80 4.66L35.04 4.66C35.14 4.66 35.21 4.58 35.21 4.49C35.21 4.41 35.14 4.33 35.04 4.33L32.96 4.33L32.96 2.66L35.98 2.66C36.06 2.66 36.13 2.59 36.13 2.49C36.13 2.41 36.06 2.34 35.98 2.34ZM35.98 10.33L35.98 10.33L30.95 10.33L30.95 0.66L35.98 0.66C36.06 0.66 36.13 0.59 36.13 0.49C36.13 0.41 36.06 0.34 35.98 0.34L30.80 0.34C30.70 0.34 30.63 0.41 30.63 0.49L30.63 10.50C30.63 10.58 30.70 10.65 30.80 10.65L35.98 10.65C36.06 10.65 36.13 10.58 36.13 10.50C36.13 10.40 36.06 10.33 35.98 10.33ZM37.63 9.98L37.63 9.98C38.19 10.26 38.72 10.44 39.23 10.56C41.78 11.16 44.03 10.07 44.03 7.53C44.03 5.00 40.96 4.48 40.33 4.00C40.14 3.85 40.03 3.63 40.03 3.42C40.01 2.94 40.39 2.69 40.81 2.63C41.47 2.56 42.32 2.83 42.81 3.02C43.01 3.11 43.13 2.81 42.94 2.73C42.13 2.39 41.50 2.27 40.82 2.31C40.18 2.34 39.68 2.81 39.70 3.46C39.79 4.73 41.52 4.47 42.90 5.75C44.09 6.85 43.88 8.60 42.92 9.56C41.68 10.81 39.41 10.54 37.80 9.70C37.60 9.60 37.45 9.88 37.63 9.98ZM43.19 0.71L43.19 0.71C42.53 0.49 42.03 0.38 41.64 0.32C39.38 0.01 37.69 1.32 37.69 3.49C37.69 6.09 40.75 6.45 41.41 7C41.73 7.29 41.79 7.80 41.45 8.11C40.75 8.75 38.95 8.23 38.07 7.62C37.90 7.50 37.70 7.76 37.88 7.88C38.78 8.54 39.91 8.76 40.80 8.71C41.45 8.67 42.04 8.20 42 7.55C41.92 6.26 40.21 6.50 38.84 5.31C37.63 4.23 37.86 2.45 38.75 1.48C39.86 0.28 41.58 0.49 43.08 1.01C43.27 1.09 43.39 0.78 43.19 0.71Z"></path></g><!----><g data-v-423bf9ae="" id="f8b69ae4-3469-4cbd-b706-be5188f459fa" transform="matrix(1.0227272727272727,0,0,1.0227272727272727,-14.136374885385685,-6.136363636363633)" stroke="none" fill="white"><path style="text-indent:0;text-align:start;line-height:normal;text-transform:none;block-progression:tb;marker:none;-inkscape-font-specification:Sans" d="M50 6c-9.365 0-17 7.635-17 17 0 8.693 6.565 15.886 15 16.875V43H27a1.954 1.954 0 0 0-.188 0c-.983.093-1.816 1.012-1.812 2v6.156l-1.594-1.593a2 2 0 0 0-1.625-.594 2 2 0 0 0-1.187 3.437l5 5a2 2 0 0 0 2.812 0l5-5a2 2 0 1 0-2.812-2.843L29 51.156V47h42v12.156l-1.594-1.593a2 2 0 0 0-1.625-.594 2 2 0 0 0-1.187 3.437l5 5a2 2 0 0 0 2.812 0l5-5a2 2 0 1 0-2.812-2.843L75 59.156V45c0-1.047-.953-2-2-2H52v-3.125C60.42 38.872 67 31.683 67 23c0-9.365-7.635-17-17-17zm0 4c7.203 0 13 5.797 13 13s-5.797 13-13 13-13-5.797-13-13 5.797-13 13-13zM15.812 60A2 2 0 0 0 14 62v22a2 2 0 0 0 2 2h22a2 2 0 0 0 2-2V62a2 2 0 0 0-2-2H16a2 2 0 0 0-.188 0zM18 64h18v18H18V64zm43.813 4A2 2 0 0 0 60 70v22a2 2 0 0 0 2 2h22a2 2 0 0 0 2-2V70a2 2 0 0 0-2-2H62a2 2 0 0 0-.188 0zM64 72h18v18H64V72z" font-weight="400" color="#000" overflow="visible" font-family="Sans"></path></g><!----></svg>