<svg xmlns="http://www.w3.org/2000/svg" version="1.1" xmlns:xlink="http://www.w3.org/1999/xlink"
     xmlns:svgjs="http://svgjs.com/svgjs" width="1440" height="560" preserveAspectRatio="none" viewBox="0 0 1440 560">
  <g mask="url(&quot;#SvgjsMask1011&quot;)" fill="none">
    <path
      d="M98.9154604862096 595.6249976383367L233.03530997296093 600.3085659865314 237.71887832115573 466.1887164997802 103.59902883440438 461.5051481515854z"
      fill="rgba(0, 121, 107, 0.6666666666666666)" class="triangle-float2"></path>
    <path d="M275.96 439.83 a111.76 111.76 0 1 0 223.52 0 a111.76 111.76 0 1 0 -223.52 0z"
          fill="rgba(0, 121, 107, 0.6666666666666666)" class="triangle-float2"></path>
    <path
      d="M1462.5,553.763C1522.878,557.206,1575.821,515.26,1604.89,462.228C1632.826,411.262,1633.091,348.573,1601.827,299.578C1572.636,253.831,1516.767,239.076,1462.5,239.082C1408.246,239.088,1349.753,252.282,1323.226,299.609C1297.104,346.212,1320.032,400.598,1345.706,447.45C1372.821,496.932,1406.167,550.551,1462.5,553.763"
      fill="rgba(0, 121, 107, 0.6666666666666666)" class="triangle-float3"></path>
    <path
      d="M171.5690669204229 463.2934372945841L74.82530504675206 523.7456490778551 232.0212787036939 560.0371991682549z"
      fill="rgba(0, 121, 107, 0.6666666666666666)" class="triangle-float3"></path>
    <path
      d="M411.198,260.221C457.337,260.881,501.833,238.587,524.641,198.474C547.212,158.779,541.405,110.528,518.908,70.791C496.036,30.391,457.622,-2.235,411.198,-1.902C365.241,-1.573,328.196,32.002,306.127,72.315C285.021,110.869,281.787,156.945,303.238,195.308C325.203,234.589,366.198,259.578,411.198,260.221"
      fill="rgba(0, 121, 107, 0.6666666666666666)" class="triangle-float3"></path>
    <path
      d="M1264.729033655821 248.6299836455685L1144.9744659740268 287.41446288233374 1225.4508656330713 362.4599196424366z"
      fill="rgba(0, 121, 107, 0.6666666666666666)" class="triangle-float1"></path>
    <path
      d="M88.146,593.448C144.16,593.914,195.314,558.586,219.71,508.161C241.556,463.006,220.571,413.657,196.394,369.706C170.934,323.422,140.97,268.895,88.146,268.987C35.4,269.079,5.589,323.657,-19.449,370.082C-42.754,413.293,-60.987,461.772,-39.681,506.003C-15.668,555.853,32.816,592.988,88.146,593.448"
      fill="rgba(0, 121, 107, 0.6666666666666666)" class="triangle-float3"></path>
    <path d="M584.05 486.6 a171.68 171.68 0 1 0 343.36 0 a171.68 171.68 0 1 0 -343.36 0z"
          fill="rgba(0, 121, 107, 0.6666666666666666)" class="triangle-float3"></path>
    <path
      d="M1306.4791522271871 93.8247326835708L1185.3877855251617-4.4243482283019695 1161.7173699377036 129.81724935564455z"
      fill="rgba(0, 121, 107, 0.6666666666666666)" class="triangle-float1"></path>
    <path d="M-60.16 21.13 a121.82 121.82 0 1 0 243.64 0 a121.82 121.82 0 1 0 -243.64 0z"
          fill="rgba(0, 121, 107, 0.6666666666666666)" class="triangle-float3"></path>
  </g>
  <defs>
    <mask id="SvgjsMask1011">
      <rect width="1440" height="560" fill="#ffffff"></rect>
    </mask>
    <style>
      @keyframes float1 {
        0% {
          transform: translate(0, 0)
        }
        50% {
          transform: translate(-10px, 0)
        }
        100% {
          transform: translate(0, 0)
        }
      }

      .triangle-float1 {
        animation: float1 5s infinite;
      }

      @keyframes float2 {
        0% {
          transform: translate(0, 0)
        }
        50% {
          transform: translate(-5px, -5px)
        }
        100% {
          transform: translate(0, 0)
        }
      }

      .triangle-float2 {
        animation: float2 4s infinite;
      }

      @keyframes float3 {
        0% {
          transform: translate(0, 0)
        }
        50% {
          transform: translate(0, -10px)
        }
        100% {
          transform: translate(0, 0)
        }
      }

      .triangle-float3 {
        animation: float3 6s infinite;
      }
    </style>
  </defs>
</svg>
